<?xml version="1.0" encoding="UTF-8" standalone="no"?>
<!-- Created with Inkscape (http://www.inkscape.org/) -->

<svg
   width="135.46667mm"
   height="135.53117mm"
   viewBox="0 0 135.46668 135.53118"
   version="1.1"
   id="svg1"
   xml:space="preserve"
   sodipodi:docname="icon.svg"
   inkscape:version="1.4 (e7c3feb100, 2024-10-09)"
   xmlns:inkscape="http://www.inkscape.org/namespaces/inkscape"
   xmlns:sodipodi="http://sodipodi.sourceforge.net/DTD/sodipodi-0.dtd"
   xmlns="http://www.w3.org/2000/svg"
   xmlns:svg="http://www.w3.org/2000/svg"><sodipodi:namedview
     id="namedview1"
     pagecolor="#ffffff"
     bordercolor="#000000"
     borderopacity="0.25"
     inkscape:showpageshadow="2"
     inkscape:pageopacity="0.0"
     inkscape:pagecheckerboard="true"
     inkscape:deskcolor="#d1d1d1"
     inkscape:document-units="mm"
     inkscape:zoom="0.70710678"
     inkscape:cx="6.363961"
     inkscape:cy="447.59859"
     inkscape:window-width="1920"
     inkscape:window-height="1023"
     inkscape:window-x="0"
     inkscape:window-y="0"
     inkscape:window-maximized="1"
     inkscape:current-layer="svg1"
     showgrid="false"><inkscape:grid
       id="grid48"
       units="mm"
       originx="0"
       originy="0"
       spacingx="0.99999998"
       spacingy="0.99999999"
       empcolor="#0099e5"
       empopacity="0.30196078"
       color="#0099e5"
       opacity="0.14901961"
       empspacing="5"
       enabled="true"
       visible="false" /></sodipodi:namedview><defs
     id="defs1" /><path
     id="rect43"
     style="display:inline;fill:#1a9f74;stroke-width:0.360528"
     inkscape:label="base"
     d="M 8.8774943 21.261235 C 3.9593315 21.261235 0 25.220566 0 30.138729 L 0 126.65325 C 1.2533184e-15 131.57141 3.9593315 135.53075 8.8774943 135.53075 L 126.58917 135.53075 C 131.50734 135.53075 135.46667 131.57141 135.46667 126.65325 L 135.46667 30.138729 C 135.46667 25.220566 131.50734 21.261235 126.58917 21.261235 L 8.8774943 21.261235 z M 102.21908 82.961344 A 13.559929 13.559929 0 0 1 115.77898 96.52124 A 13.559929 13.559929 0 0 1 102.21908 110.08114 A 13.559929 13.559929 0 0 1 88.659188 96.52124 A 13.559929 13.559929 0 0 1 102.21908 82.961344 z " /><path
     id="rect42"
     style="display:inline;stroke-width:0.302878"
     inkscape:label="screen"
     d="M 17.613912 30.895789 C 13.525128 30.895789 10.233484 34.187948 10.233484 38.276733 L 10.233484 118.51576 C 10.233484 122.60454 13.525128 125.89619 17.613912 125.89619 L 117.85275 125.89619 C 121.94153 125.89619 125.23318 122.60454 125.23318 118.51576 L 125.23318 38.276733 C 125.23318 34.187948 121.94153 30.895789 117.85275 30.895789 L 17.613912 30.895789 z M 102.21908 82.961344 A 13.559929 13.559929 0 0 1 115.77898 96.52124 A 13.559929 13.559929 0 0 1 102.21908 110.08114 A 13.559929 13.559929 0 0 1 88.659188 96.52124 A 13.559929 13.559929 0 0 1 102.21908 82.961344 z " /><path
     id="rect45"
     style="display:inline;fill:#ffffff;stroke:none;stroke-width:0.225638"
     inkscape:label="line"
     d="M 67.502856 91.03682 C 64.464452 91.03682 62.018437 93.48284 62.018437 96.52124 C 62.018437 99.55965 64.464452 102.00566 67.502856 102.00566 L 89.829142 102.00566 A 13.559929 13.559929 0 0 1 88.659188 96.52124 A 13.559929 13.559929 0 0 1 89.829142 91.03682 L 67.502856 91.03682 z " /><path
     style="display:inline;fill:#bad6cc;fill-opacity:1;stroke:#1a9f74;stroke-width:0.20144;stroke-dasharray:none;stroke-opacity:1"
     d="m 80.712208,13.8879 c 0,-8.80103 0.09444,-9.6686932 1.26934,-11.651269 1.292822,-2.18173064 0.997071,-2.13570512 13.725943,-2.13570512 10.565549,0 11.296649,0.034605 12.456399,0.56686198 2.74271,1.26201534 4.99807,3.47984174 6.85631,6.74237694 1.93868,3.4037382 2.92654,7.4643562 2.93366,12.0589932 l 0.002,1.973387 H 99.333337 80.710952 Z"
     id="path2-3-2"
     inkscape:label="Tab3" /><path
     style="display:inline;fill:#bad6cc;fill-opacity:1;stroke:#1a9f74;stroke-width:0.202;stroke-dasharray:none;stroke-opacity:1"
     d="m 44.697809,13.8879 c 0,-8.80103 0.09444,-9.6686932 1.269331,-11.651269 1.292813,-2.18173064 0.997062,-2.13570512 13.725916,-2.13570512 10.56556,0 11.296664,0.034605 12.456412,0.56686198 2.742703,1.26201534 4.998079,3.47984174 6.856311,6.74237694 1.938682,3.4037382 2.926532,7.4643562 2.933666,12.0589932 l 0.0018,1.973387 H 63.31892 44.696544 Z"
     id="path2-3"
     inkscape:label="Tab2" /><path
     style="display:inline;fill:#1a9f74;fill-opacity:1;stroke:#1a9f74;stroke-width:0.202;stroke-dasharray:none;stroke-opacity:1"
     d="m 8.7624205,13.886743 c 0,-8.8010205 0.094523,-9.6686837 1.2693405,-11.6512866 1.292806,-2.18171255 0.997061,-2.13568703 13.725895,-2.13568703 10.565539,0 11.296661,0.03460497 12.4564,0.56687102 2.742712,1.26198821 4.99806,3.47983271 6.856311,6.74236791 1.938672,3.4037287 2.926522,7.4643467 2.933666,12.0590107 l 0.0027,1.973369 H 27.384817 8.7624811 Z"
     id="path2"
     inkscape:label="Tab1" /><text
     xml:space="preserve"
     style="font-style:normal;font-variant:normal;font-weight:normal;font-stretch:normal;font-size:77.6111px;line-height:0.4;font-family:P052;-inkscape-font-specification:P052;text-align:start;writing-mode:lr-tb;direction:ltr;text-anchor:start;display:inline;fill:#131811;fill-opacity:1;stroke:#1a9f74;stroke-width:0.202;stroke-dasharray:none;stroke-opacity:1"
     x="20.099609"
     y="108.229"
     id="text20"><tspan
       style="font-style:normal;font-variant:normal;font-weight:600;font-stretch:normal;font-size:74.0833px;line-height:0.4;font-family:Dosis;-inkscape-font-specification:'Dosis Semi-Bold';fill:#ffffff;fill-opacity:1;stroke:none;stroke-width:0.202"
       x="20.099609"
       y="108.229"
       sodipodi:role="line"
       id="tspan33"><tspan
   id="tspan42"
   style="font-style:normal;font-variant:normal;font-weight:600;font-stretch:normal;font-size:102.306px;line-height:0.4;font-family:Dosis;-inkscape-font-specification:'Dosis Semi-Bold';fill:#ffffff;fill-opacity:1;stroke:none;stroke-width:0.202">&gt;</tspan> </tspan></text></svg>
